<?xml version="1.0" standalone="no"?>
<!DOCTYPE svg PUBLIC "-//W3C//DTD SVG 20010904//EN"
 "http://www.w3.org/TR/2001/REC-SVG-20010904/DTD/svg10.dtd">
<svg version="1.0" xmlns="http://www.w3.org/2000/svg"
 width="500.000000pt" height="500.000000pt" viewBox="0 0 500.000000 500.000000"
 preserveAspectRatio="xMidYMid meet">

<g transform="translate(0.000000,500.000000) scale(0.100000,-0.100000)"
fill="#000000" stroke="none">
<path d="M0 2500 l0 -2500 2500 0 2500 0 0 2500 0 2500 -2500 0 -2500 0 0
-2500z m1436 1492 c28 -22 40 -46 79 -161 17 -53 42 -122 54 -153 41 -111 23
-205 -58 -294 -47 -51 -49 -56 -48 -111 0 -32 -3 -69 -8 -83 l-7 -25 19 25
c11 14 42 59 70 100 28 41 70 94 93 117 65 64 101 78 195 78 107 -1 165 -29
282 -138 48 -46 109 -97 134 -114 79 -55 85 -116 17 -167 -23 -16 -45 -20
-115 -21 -49 -1 -124 -5 -168 -10 -145 -14 -278 35 -364 134 -77 89 -83 90
-119 33 -38 -58 -79 -97 -157 -150 -65 -44 -106 -83 -154 -151 -40 -56 -40
-70 0 -36 64 53 190 96 274 94 17 -1 -7 -7 -53 -15 -87 -15 -173 -46 -193 -71
-14 -16 -16 -16 126 19 138 34 241 14 280 -56 9 -17 38 -50 63 -73 30 -27 41
-43 31 -43 -25 0 -68 38 -89 80 -10 20 -33 49 -50 64 -38 31 -95 34 -205 12
-38 -8 -97 -19 -129 -25 -45 -8 -68 -19 -93 -43 -18 -17 -31 -33 -29 -35 2 -2
23 3 47 12 93 34 101 35 184 15 44 -10 72 -19 63 -19 -9 -1 -45 6 -80 14 -43
10 -73 12 -93 6 -17 -5 -25 -10 -20 -10 6 -1 55 -8 110 -16 55 -8 111 -14 125
-14 l25 1 -25 8 -25 8 27 1 c15 1 30 -4 33 -9 11 -18 -25 -23 -98 -13 -40 6
-73 9 -74 8 -4 -3 93 -68 139 -92 23 -13 56 -23 73 -23 38 0 104 -30 130 -60
11 -12 31 -43 45 -68 36 -67 59 -67 121 0 27 29 58 71 69 93 11 22 20 33 20
23 0 -23 -109 -166 -132 -174 -41 -13 -67 5 -98 65 -36 71 -76 99 -162 111
-44 7 -73 18 -102 40 -123 92 -201 117 -259 81 -19 -12 -42 -21 -50 -21 -26 0
-64 -49 -78 -99 -7 -25 -37 -82 -67 -126 l-55 -80 79 75 c44 41 108 91 144
110 58 31 73 35 140 35 65 0 84 -4 140 -32 36 -18 108 -65 160 -105 75 -58 96
-79 98 -101 5 -45 -21 -72 -105 -107 -169 -71 -255 -77 -408 -30 -54 17 -116
30 -139 30 -23 0 -66 6 -96 14 -30 8 -56 13 -57 12 -1 -1 -11 -22 -22 -46 -13
-27 -21 -37 -21 -25 0 11 11 43 25 70 13 28 25 55 25 62 0 6 25 49 56 94 63
91 98 164 90 184 -2 7 -29 22 -58 33 -122 47 -221 103 -273 157 -64 65 -90
116 -120 237 -14 57 -37 116 -59 152 -20 33 -36 66 -36 72 0 27 24 65 46 70
39 10 92 -28 255 -181 52 -49 128 -116 168 -148 108 -87 142 -174 118 -305
-11 -61 3 -48 64 61 29 51 65 108 80 127 16 19 25 38 21 42 -4 4 -32 12 -62
18 -30 6 -64 17 -77 25 -33 22 -63 88 -68 148 l-4 52 9 -53 c19 -101 58 -146
139 -162 30 -5 56 -10 58 -10 16 0 -17 93 -73 206 -63 128 -74 166 -54 179 14
9 40 -13 39 -34 0 -11 -3 -9 -9 7 -11 26 -30 29 -30 5 0 -10 8 -38 18 -63 l17
-45 6 40 6 40 2 -44 c0 -27 13 -67 32 -104 42 -83 72 -165 64 -177 -3 -5 0 -7
8 -4 14 5 37 86 37 133 0 15 -18 61 -39 102 -21 41 -44 94 -51 119 -24 88 -67
150 -106 150 -28 0 -80 -58 -89 -100 -4 -17 -2 -60 5 -95 7 -35 10 -69 8 -76
-8 -23 -30 149 -23 180 10 44 66 101 100 101 41 0 79 -48 105 -132 13 -40 40
-105 61 -144 41 -74 46 -107 29 -179 -5 -22 -7 -41 -5 -43 8 -9 142 97 154
123 7 15 16 56 19 91 6 85 -18 134 -98 194 -93 69 -137 151 -128 234 6 46 100
273 130 311 23 29 54 32 84 7z m154 -1077 c39 -19 70 -38 70 -40 0 -3 -28 9
-62 26 -35 18 -74 35 -88 40 -17 5 -19 8 -7 8 10 1 49 -15 87 -34z m200 -110
c0 -3 -27 8 -60 25 -33 17 -60 33 -60 35 0 3 27 -8 60 -25 33 -17 60 -33 60
-35z m106 -73 c8 -13 13 -29 10 -35 -2 -7 -5 -5 -5 4 -1 16 -42 56 -87 87 -10
7 0 3 24 -10 23 -12 49 -32 58 -46z m-316 -542 c28 -28 33 -60 27 -158 -6 -93
-28 -171 -84 -294 -39 -85 -40 -124 -2 -172 38 -48 84 -25 139 69 54 93 113
127 176 100 34 -14 44 -37 23 -51 -6 -3 -16 -1 -22 5 -6 6 -26 11 -44 11 -63
0 -111 -86 -78 -137 9 -12 20 -23 26 -23 19 0 59 49 65 79 7 31 32 50 39 28 2
-6 9 -31 15 -55 19 -76 70 -66 121 23 30 53 50 67 64 45 9 -15 -39 -92 -80
-129 -52 -46 -104 -40 -133 14 -6 11 -12 14 -12 7 0 -15 -59 -52 -83 -52 -10
0 -31 13 -47 28 l-28 28 -31 -28 c-43 -39 -77 -45 -109 -21 -67 48 -98 182
-89 388 11 239 74 368 147 295z m781 -6 c53 -56 33 -247 -44 -419 -24 -53 -42
-110 -44 -140 l-4 -50 31 51 c45 76 74 104 109 104 40 0 51 -23 51 -110 0 -55
3 -72 16 -77 27 -10 68 31 109 113 52 102 101 119 60 21 -21 -51 -20 -114 3
-126 45 -24 90 37 91 125 1 45 23 75 37 52 5 -7 7 -41 5 -76 -3 -69 15 -112
47 -112 27 0 78 58 106 122 37 84 85 109 126 68 13 -13 20 -33 20 -56 0 -29
-8 -44 -40 -77 -45 -45 -41 -57 21 -57 38 0 69 26 108 90 26 44 27 67 1 75
-28 9 -26 57 3 91 29 33 55 27 63 -15 5 -24 13 -30 40 -36 46 -8 56 -31 48
-110 -7 -72 3 -95 41 -95 25 0 65 36 94 84 16 27 17 40 10 96 -8 60 -4 192 7
233 5 15 -4 17 -91 17 -86 0 -96 2 -93 18 3 14 17 17 99 20 91 3 97 4 107 27
6 13 23 32 38 41 26 18 27 18 50 -10 13 -15 24 -34 24 -42 0 -12 27 -14 155
-14 l155 0 10 24 c5 14 20 32 34 41 32 21 64 6 73 -35 l5 -29 127 -3 c110 -3
126 -5 129 -20 3 -16 -10 -18 -125 -20 l-128 -3 -3 -30 c-6 -70 -26 -155 -53
-227 -28 -71 -29 -79 -16 -105 8 -15 24 -37 36 -47 30 -27 64 -9 99 50 68 116
131 157 198 129 34 -14 44 -37 23 -51 -6 -3 -16 -1 -22 5 -6 6 -26 11 -44 11
-63 0 -111 -86 -78 -137 9 -12 20 -23 26 -23 19 0 59 49 65 79 7 31 32 50 39
28 2 -6 9 -31 15 -55 19 -76 70 -66 121 23 30 53 50 67 64 45 9 -15 -39 -92
-80 -129 -52 -46 -104 -40 -133 14 -6 11 -12 14 -12 7 0 -15 -59 -52 -83 -52
-10 0 -31 13 -47 28 l-28 28 -31 -28 c-42 -37 -80 -37 -125 3 -19 16 -38 39
-41 50 -6 18 -10 15 -35 -20 -36 -49 -67 -71 -100 -71 -32 0 -69 25 -80 56
l-9 23 -29 -29 c-56 -56 -125 -48 -164 20 l-21 36 -47 -48 c-39 -40 -52 -48
-84 -48 -26 0 -44 7 -63 26 -24 24 -25 30 -21 100 l5 75 -25 -3 c-19 -2 -28
-11 -34 -34 -11 -42 -66 -122 -101 -148 -19 -14 -44 -21 -74 -21 -41 0 -49 4
-81 40 l-35 40 -37 -37 c-46 -47 -88 -51 -126 -13 l-25 26 -30 -26 c-17 -14
-37 -25 -44 -25 -29 0 -66 21 -76 43 l-11 24 -28 -28 c-81 -82 -161 -24 -144
105 6 39 4 46 -10 46 -16 0 -70 -75 -103 -144 -20 -43 -51 -56 -70 -30 -25 34
-8 523 22 621 23 76 62 93 106 47z m-797 -1460 c26 -10 18 -23 -11 -21 -24 2
-28 -2 -28 -23 0 -21 5 -25 28 -25 34 1 30 -19 -5 -23 -49 -6 -69 54 -30 86
18 14 24 14 46 6z m136 -14 c24 -24 25 -43 4 -64 -30 -30 -94 -10 -94 30 0 19
36 54 55 54 8 0 24 -9 35 -20z m91 -12 l13 -31 15 31 c23 49 41 41 41 -18 0
-51 -19 -72 -21 -22 0 27 -1 27 -11 5 -6 -13 -16 -23 -23 -23 -7 0 -17 10 -23
23 -10 22 -11 22 -11 -5 -2 -50 -21 -29 -21 22 0 59 20 68 41 18z m190 13 c20
-16 22 -23 14 -47 -8 -22 -18 -30 -42 -32 -53 -5 -77 52 -35 86 22 17 36 15
63 -7z m237 0 c3 -9 -1 -11 -14 -7 -26 8 -47 -7 -42 -30 2 -13 12 -19 33 -19
38 -1 39 -19 2 -23 -35 -4 -57 13 -57 44 0 44 65 74 78 35z m64 -18 c2 -30 7
-38 23 -38 16 0 21 8 23 38 4 49 22 48 22 -1 0 -43 -14 -62 -45 -62 -31 0 -45
19 -45 62 0 49 18 50 22 1z m178 -10 c23 -52 21 -60 -9 -41 -17 11 -25 11 -42
0 -12 -7 -23 -12 -25 -9 -7 6 36 97 46 97 5 0 18 -21 30 -47z m98 14 l22 -32
0 33 c0 17 5 32 10 32 6 0 10 -22 10 -50 0 -56 -9 -62 -39 -24 l-21 27 0 -27
c0 -16 -5 -26 -15 -26 -11 0 -15 11 -15 43 0 67 13 73 48 24z m162 13 c38 -38
14 -80 -46 -80 -33 0 -34 1 -34 43 0 24 3 47 7 50 13 14 54 6 73 -13z m131 1
c20 -16 22 -23 14 -47 -8 -22 -18 -30 -42 -32 -53 -5 -77 52 -35 86 22 17 36
15 63 -7z m163 1 c22 31 31 16 12 -21 -9 -16 -16 -37 -16 -46 0 -21 -20 -19
-20 3 0 9 -7 26 -15 36 -8 11 -15 27 -15 35 1 12 5 10 20 -7 l19 -22 15 22z
m197 -1 c22 -17 23 -22 12 -50 -6 -17 -7 -31 -2 -31 5 0 9 -4 9 -10 0 -14 -22
-12 -59 6 -50 25 -59 63 -23 92 22 17 36 15 63 -7z m79 -21 c0 -33 3 -40 20
-40 17 0 20 7 20 40 0 22 5 40 11 40 6 0 9 -19 7 -47 -3 -48 -3 -48 -38 -48
-35 0 -35 0 -38 48 -2 28 1 47 7 47 6 0 11 -18 11 -40z m180 30 c0 -5 -11 -10
-25 -10 -14 0 -25 -4 -25 -10 0 -5 9 -10 20 -10 11 0 20 -4 20 -10 0 -5 -9
-10 -20 -10 -11 0 -20 -4 -20 -10 0 -5 11 -10 25 -10 14 0 25 -4 25 -10 0 -5
-18 -10 -40 -10 l-40 0 0 43 c0 24 3 47 7 50 10 11 73 8 73 -3z m159 1 c17
-11 -1 -23 -23 -15 -27 10 -18 -12 10 -25 38 -17 28 -46 -15 -46 -19 0 -36 6
-39 13 -3 9 3 11 22 6 16 -4 26 -2 26 5 0 6 -6 11 -14 11 -7 0 -19 7 -26 15
-24 29 23 58 59 36z m121 -1 c0 -5 -11 -10 -25 -10 -14 0 -25 -4 -25 -10 0 -5
9 -10 20 -10 11 0 20 -4 20 -10 0 -5 -9 -10 -20 -10 -11 0 -20 -4 -20 -10 0
-5 11 -10 25 -10 14 0 25 -4 25 -10 0 -5 -18 -10 -40 -10 l-40 0 0 43 c0 24 3
47 7 50 10 11 73 8 73 -3z m72 -15 c6 -14 14 -25 18 -25 4 0 12 11 18 25 18
40 32 29 32 -25 0 -27 -4 -50 -10 -50 -5 0 -10 10 -10 22 0 21 0 21 -15 2 -15
-19 -15 -19 -30 0 -15 19 -15 19 -15 -2 0 -12 -4 -22 -10 -22 -5 0 -10 23 -10
50 0 54 14 65 32 25z m174 17 c13 -8 24 -60 17 -79 -3 -8 -21 -13 -44 -13
l-39 0 0 43 c0 24 3 47 7 50 9 9 45 9 59 -1z m128 -8 c19 -18 20 -26 4 -42 -8
-8 -8 -15 2 -27 10 -12 10 -15 -3 -15 -8 0 -17 7 -21 15 -3 8 -10 15 -16 15
-5 0 -10 -7 -10 -15 0 -8 -7 -15 -15 -15 -11 0 -15 11 -15 43 0 24 3 47 7 50
12 13 51 7 67 -9z m123 -34 c17 -40 18 -50 7 -50 -8 0 -14 5 -14 10 0 6 -11
10 -25 10 -14 0 -25 -4 -25 -10 0 -5 -6 -10 -14 -10 -12 0 -10 10 7 50 12 27
27 50 33 50 5 0 20 -22 31 -50z m121 37 c11 -13 12 -87 1 -87 -4 0 -12 7 -19
15 -7 8 -16 15 -21 15 -5 0 -9 -7 -9 -15 0 -8 -4 -15 -10 -15 -5 0 -10 23 -10
50 0 48 1 50 29 50 16 0 33 -6 39 -13z m-2318 -82 c0 -8 -4 -15 -10 -15 -5 0
-10 7 -10 15 0 8 5 15 10 15 6 0 10 -7 10 -15z"/>
<path d="M1367 3982 c-9 -10 -41 -77 -72 -149 -42 -99 -55 -143 -55 -180 0
-72 38 -142 105 -192 30 -23 64 -51 76 -64 l22 -22 -7 35 c-3 19 -15 53 -26
75 -24 50 -72 207 -78 256 -2 20 1 47 8 59 21 39 35 5 41 -98 5 -76 14 -119
42 -195 19 -55 38 -101 40 -104 3 -2 13 39 22 93 15 79 16 106 6 146 -14 64
-14 78 2 78 24 0 37 -49 37 -138 0 -76 -4 -95 -30 -151 -17 -35 -29 -66 -27
-68 10 -9 81 93 93 134 19 64 17 98 -12 178 -14 39 -38 109 -53 156 -35 105
-55 145 -80 159 -27 14 -35 13 -54 -8z"/>
<path d="M1347 3777 c-4 -15 -2 -46 5 -70 l13 -42 3 37 c2 20 -1 51 -6 70 l-8
33 -7 -28z"/>
<path d="M1502 3664 c6 -22 8 -74 5 -119 -4 -64 -3 -73 5 -45 13 45 6 176 -9
191 -10 10 -10 4 -1 -27z"/>
<path d="M1765 3471 c-51 -13 -95 -40 -141 -88 -24 -26 -44 -50 -44 -54 0 -3
19 0 43 8 79 28 360 1 401 -38 22 -20 -9 -20 -91 1 -153 38 -307 39 -353 2
-21 -17 -20 -17 37 -18 39 0 95 -13 173 -38 93 -31 137 -39 228 -45 111 -7
148 -19 125 -42 -7 -7 -47 -2 -134 16 -68 14 -167 30 -219 35 -52 5 -104 12
-115 16 -11 4 7 -16 40 -46 63 -57 74 -70 55 -70 -22 0 -72 32 -126 80 -71 65
-88 64 -32 -2 59 -69 97 -94 182 -120 79 -24 120 -26 313 -12 118 9 135 12
158 34 44 42 33 87 -34 132 -25 18 -82 66 -126 108 -96 91 -132 114 -210 135
-64 16 -83 17 -130 6z"/>
<path d="M502 3368 c-21 -21 -13 -58 23 -116 31 -52 65 -151 65 -193 0 -54
102 -194 180 -246 21 -13 20 -11 -7 18 -35 38 -123 167 -123 180 0 30 49 -18
103 -101 20 -30 49 -68 66 -84 37 -36 201 -118 201 -101 0 30 -116 178 -246
314 -79 83 -144 155 -144 160 0 27 22 16 56 -26 21 -27 77 -86 126 -133 74
-72 86 -81 81 -57 -4 20 -2 27 9 27 15 0 92 -144 119 -222 7 -21 16 -38 20
-38 10 0 20 93 13 131 -13 69 -54 126 -138 192 -44 35 -128 109 -186 163 -151
143 -186 164 -218 132z"/>
<path d="M1625 3254 c87 -24 145 -36 158 -31 20 7 -122 47 -167 46 l-41 0 50
-15z"/>
<path d="M1660 3195 c14 -15 39 -36 55 -48 29 -20 29 -19 -5 17 -19 21 -44 42
-55 48 -16 9 -16 6 5 -17z"/>
<path d="M2060 3176 c0 -2 16 -6 35 -8 19 -2 35 0 35 4 0 4 -16 8 -35 8 -19 0
-35 -2 -35 -4z"/>
<path d="M900 2976 c0 -11 30 -66 36 -66 2 0 -3 15 -12 33 -19 36 -24 44 -24
33z"/>
<path d="M1179 2625 c-61 -22 -121 -65 -195 -139 -108 -108 -122 -149 -28 -81
116 83 162 91 312 55 47 -11 118 -20 162 -20 86 0 110 -5 110 -25 0 -29 -75
-33 -179 -10 -40 9 -101 15 -147 13 l-79 -3 50 -24 c28 -13 74 -31 104 -40 30
-9 56 -22 58 -28 7 -21 -40 -22 -101 -2 -44 15 -100 22 -206 26 -160 6 -182
-3 -44 -17 49 -5 116 -19 149 -30 87 -30 176 -40 248 -29 77 13 201 64 241 99
27 25 29 30 19 53 -14 29 -212 173 -275 198 -51 21 -148 23 -199 4z"/>
<path d="M1052 2451 c-23 -14 45 -22 132 -14 62 5 74 9 51 14 -44 10 -168 10
-183 0z"/>
<path d="M1000 2410 c-13 -9 -13 -10 0 -9 8 1 26 5 40 9 l25 8 -25 1 c-14 0
-32 -4 -40 -9z"/>
<path d="M1417 2413 c18 -2 50 -2 70 0 21 2 7 4 -32 4 -38 0 -55 -2 -38 -4z"/>
<path d="M1030 2392 c-58 -15 -61 -17 -30 -19 79 -6 220 -23 237 -29 10 -3
-15 11 -56 30 -40 20 -76 36 -80 35 -3 0 -35 -8 -71 -17z"/>
<path d="M1270 2330 c8 -5 26 -9 40 -9 l25 1 -25 8 c-14 4 -32 8 -40 9 -13 1
-13 0 0 -9z"/>
<path d="M1520 2151 c-22 -43 -41 -153 -46 -281 -5 -119 -4 -133 9 -117 29 35
79 210 84 293 7 103 -18 158 -47 105z"/>
<path d="M2301 2151 c-19 -35 -32 -156 -29 -276 l3 -120 22 60 c33 88 53 182
53 247 0 89 -25 135 -49 89z"/>
<path d="M3537 2025 c-5 -10 0 -15 14 -15 12 0 19 5 17 12 -6 18 -25 20 -31 3z"/>
<path d="M3976 2033 c-11 -11 -6 -23 9 -23 8 0 15 4 15 9 0 13 -16 22 -24 14z"/>
<path d="M3516 1948 c-3 -13 -5 -72 -5 -133 1 -100 2 -107 14 -80 16 36 45
173 45 210 0 20 -5 25 -24 25 -16 0 -26 -7 -30 -22z"/>
<path d="M3607 1907 c-5 -57 -34 -161 -68 -243 -10 -26 -10 -37 1 -64 16 -39
52 -64 79 -55 35 11 84 93 92 153 8 61 12 67 33 59 12 -5 14 -21 9 -91 -6 -93
8 -136 46 -136 19 0 100 83 102 104 0 6 1 84 2 173 l2 163 -146 0 -146 0 -6
-63z m171 11 c28 -28 7 -78 -33 -78 -27 0 -45 18 -45 45 0 27 18 45 45 45 12
0 26 -5 33 -12z"/>
<path d="M3736 1891 c-4 -5 -2 -12 3 -15 5 -4 12 -2 15 3 4 5 2 12 -3 15 -5 4
-12 2 -15 -3z"/>
<path d="M3946 1933 c-3 -21 -5 -83 -5 -138 l1 -100 25 75 c13 41 27 103 30
138 6 61 6 62 -19 62 -22 0 -26 -6 -32 -37z"/>
<path d="M3191 1754 c0 -11 3 -14 6 -6 3 7 2 16 -1 19 -3 4 -6 -2 -5 -13z"/>
<path d="M2996 1691 c-12 -13 -16 -31 -14 -58 l3 -38 28 28 c20 19 27 35 25
54 -4 34 -20 39 -42 14z"/>
<path d="M1642 693 c-13 -26 -4 -43 23 -43 13 0 25 6 28 13 6 17 -11 47 -28
47 -8 0 -18 -8 -23 -17z"/>
<path d="M1932 701 c-21 -13 -10 -46 16 -49 27 -4 40 22 22 43 -14 17 -20 18
-38 6z"/>
<path d="M2420 680 c0 -5 5 -10 10 -10 6 0 10 5 10 10 0 6 -4 10 -10 10 -5 0
-10 -4 -10 -10z"/>
<path d="M2670 680 c0 -23 5 -30 19 -30 23 0 32 19 19 43 -15 28 -38 21 -38
-13z"/>
<path d="M2802 701 c-21 -13 -10 -46 16 -49 27 -4 40 22 22 43 -14 17 -20 18
-38 6z"/>
<path d="M3162 701 c-21 -13 -10 -46 16 -49 27 -4 40 22 22 43 -14 17 -20 18
-38 6z"/>
<path d="M3960 700 c0 -5 7 -10 15 -10 8 0 15 5 15 10 0 6 -7 10 -15 10 -8 0
-15 -4 -15 -10z"/>
<path d="M3960 660 c0 -5 7 -10 15 -10 8 0 15 5 15 10 0 6 -7 10 -15 10 -8 0
-15 -4 -15 -10z"/>
<path d="M4080 695 c0 -10 7 -15 18 -13 21 4 19 22 -2 26 -10 2 -16 -3 -16
-13z"/>
<path d="M4206 685 c-3 -9 0 -15 9 -15 9 0 12 6 9 15 -4 8 -7 15 -9 15 -2 0
-5 -7 -9 -15z"/>
<path d="M4320 696 c0 -10 9 -16 21 -16 24 0 21 23 -4 28 -10 2 -17 -3 -17
-12z"/>
</g>
</svg>
